<svg xmlns="http://www.w3.org/2000/svg" viewBox="0 0 512 512" width="512" height="512">
  <defs>
    <linearGradient id="neonGlow" x1="0%" y1="0%" x2="100%" y2="100%">
      <stop offset="0%" stop-color="#00E5FF" />
      <stop offset="100%" stop-color="#00B0FF" />
    </linearGradient>
  </defs>
  <!-- Background Rounded Rect for crisp contrast in browser tabs -->
  <rect width="512" height="512" rx="128" fill="#0F172A" />
  <!-- Inner Chat Bubble Icon -->
  <path d="M256 96c-88.4 0-160 61.2-160 136.8 0 42.8 26.8 80 68.8 105.2-6.8 20.8-23.6 57.2-44.4 72-2.4 1.6-3.2 4.8-1.6 7.2 1.2 2 3.2 2.8 5.2 2.8 4 0 54.8-8.8 98.8-50 10.8 1.6 22 2.4 33.2 2.4 88.4 0 160-61.2 160-136.8S344.4 96 256 96z" fill="url(#neonGlow)" />
  <!-- Accent message lines inside the bubble -->
  <rect x="180" y="200" width="152" height="24" rx="12" fill="#FFFFFF" opacity="0.95" />
  <rect x="180" y="250" width="100" height="24" rx="12" fill="#FFFFFF" opacity="0.95" />
</svg>